<?xml version="1.0" encoding="UTF-8"?>
<svg width="520px" height="534px" viewBox="0 0 520 534" version="1.1" xmlns="http://www.w3.org/2000/svg" xmlns:xlink="http://www.w3.org/1999/xlink">
    <!-- Generator: Sketch 51.3 (57544) - http://www.bohemiancoding.com/sketch -->
    <title>Untitled</title>
    <desc>Created with Sketch.</desc>
    <defs></defs>
    <g id="Page-1" stroke="none" stroke-width="1" fill="none" fill-rule="evenodd">
        <rect id="Rectangle" x="0" y="0" width="520" height="534"></rect>
        <rect id="Rectangle-2" stroke="#979797" stroke-width="0.2" x="0.1" y="0.1" width="9.8" height="533.8"></rect>
        <rect id="Rectangle-2" stroke="#979797" stroke-width="0.2" x="10.1" y="0.1" width="9.8" height="533.8"></rect>
        <rect id="Rectangle-2" stroke="#979797" stroke-width="0.2" x="20.1" y="0.1" width="9.8" height="533.8"></rect>
        <rect id="Rectangle-2" stroke="#979797" stroke-width="0.2" x="30.1" y="0.1" width="9.8" height="533.8"></rect>
        <rect id="Rectangle-2" stroke="#979797" stroke-width="0.2" x="40.1" y="0.1" width="9.8" height="533.8"></rect>
        <rect id="Rectangle-2" stroke="#979797" stroke-width="0.2" x="50.1" y="0.1" width="9.8" height="533.8"></rect>
        <rect id="Rectangle-2" stroke="#979797" stroke-width="0.2" x="60.1" y="0.1" width="9.8" height="533.8"></rect>
        <rect id="Rectangle-2" stroke="#979797" stroke-width="0.2" x="70.1" y="0.1" width="9.8" height="533.8"></rect>
        <rect id="Rectangle-2" stroke="#979797" stroke-width="0.2" x="80.1" y="0.1" width="9.8" height="533.8"></rect>
        <rect id="Rectangle-2" stroke="#979797" stroke-width="0.2" x="90.1" y="0.1" width="9.8" height="533.8"></rect>
        <rect id="Rectangle-2" stroke="#979797" stroke-width="0.2" x="100.1" y="0.1" width="9.8" height="533.8"></rect>
        <rect id="Rectangle-2" stroke="#979797" stroke-width="0.2" x="110.1" y="0.1" width="9.8" height="533.8"></rect>
        <rect id="Rectangle-2" stroke="#979797" stroke-width="0.2" x="120.1" y="0.1" width="9.8" height="533.8"></rect>
        <rect id="Rectangle-2" stroke="#979797" stroke-width="0.2" x="130.1" y="0.1" width="9.8" height="533.8"></rect>
        <rect id="Rectangle-2" stroke="#979797" stroke-width="0.2" x="140.1" y="0.1" width="9.8" height="533.8"></rect>
        <rect id="Rectangle-2" stroke="#979797" stroke-width="0.2" x="150.1" y="0.1" width="9.8" height="533.8"></rect>
        <rect id="Rectangle-2" stroke="#979797" stroke-width="0.2" x="160.1" y="0.1" width="9.8" height="533.8"></rect>
        <rect id="Rectangle-2" stroke="#979797" stroke-width="0.2" x="170.1" y="0.1" width="9.8" height="533.8"></rect>
        <rect id="Rectangle-2" stroke="#979797" stroke-width="0.2" x="180.1" y="0.1" width="9.8" height="533.8"></rect>
        <rect id="Rectangle-2" stroke="#979797" stroke-width="0.2" x="190.1" y="0.1" width="9.8" height="533.8"></rect>
        <rect id="Rectangle-2" stroke="#979797" stroke-width="0.2" x="200.1" y="0.1" width="9.8" height="533.8"></rect>
        <rect id="Rectangle-2" stroke="#979797" stroke-width="0.2" x="210.1" y="0.1" width="9.8" height="533.8"></rect>
        <rect id="Rectangle-2" stroke="#979797" stroke-width="0.2" x="220.1" y="0.1" width="9.8" height="533.8"></rect>
        <rect id="Rectangle-2" stroke="#979797" stroke-width="0.2" x="230.1" y="0.1" width="9.8" height="533.8"></rect>
        <rect id="Rectangle-2" stroke="#979797" stroke-width="0.2" x="240.1" y="0.1" width="9.8" height="533.8"></rect>
        <rect id="Rectangle-2" stroke="#979797" stroke-width="0.2" x="250.1" y="0.1" width="9.8" height="533.8"></rect>
        <rect id="Rectangle-2" stroke="#979797" stroke-width="0.2" x="260.1" y="0.1" width="9.8" height="533.8"></rect>
        <rect id="Rectangle-2" stroke="#979797" stroke-width="0.2" x="270.1" y="0.1" width="9.8" height="533.8"></rect>
        <rect id="Rectangle-2" stroke="#979797" stroke-width="0.2" x="280.1" y="0.1" width="9.8" height="533.8"></rect>
        <rect id="Rectangle-2" stroke="#979797" stroke-width="0.2" x="290.1" y="0.1" width="9.8" height="533.8"></rect>
        <rect id="Rectangle-2" stroke="#979797" stroke-width="0.2" x="300.1" y="0.1" width="9.8" height="533.8"></rect>
        <rect id="Rectangle-2" stroke="#979797" stroke-width="0.2" x="310.1" y="0.1" width="9.8" height="533.8"></rect>
        <rect id="Rectangle-2" stroke="#979797" stroke-width="0.2" x="320.1" y="0.1" width="9.8" height="533.8"></rect>
        <rect id="Rectangle-2" stroke="#979797" stroke-width="0.2" x="330.1" y="0.1" width="9.8" height="533.8"></rect>
        <rect id="Rectangle-2" stroke="#979797" stroke-width="0.2" x="340.1" y="0.1" width="9.8" height="533.8"></rect>
        <rect id="Rectangle-2" stroke="#979797" stroke-width="0.2" x="350.1" y="0.1" width="9.8" height="533.8"></rect>
        <rect id="Rectangle-2" stroke="#979797" stroke-width="0.2" x="360.1" y="0.1" width="9.8" height="533.8"></rect>
        <rect id="Rectangle-2" stroke="#979797" stroke-width="0.2" x="370.1" y="0.1" width="9.8" height="533.8"></rect>
        <rect id="Rectangle-2" stroke="#979797" stroke-width="0.2" x="380.1" y="0.1" width="9.8" height="533.8"></rect>
        <rect id="Rectangle-2" stroke="#979797" stroke-width="0.2" x="390.1" y="0.1" width="9.8" height="533.8"></rect>
        <rect id="Rectangle-2" stroke="#979797" stroke-width="0.2" x="400.1" y="0.1" width="9.8" height="533.8"></rect>
        <rect id="Rectangle-2" stroke="#979797" stroke-width="0.2" x="410.1" y="0.1" width="9.8" height="533.8"></rect>
        <rect id="Rectangle-2" stroke="#979797" stroke-width="0.2" x="420.1" y="0.1" width="9.8" height="533.8"></rect>
        <rect id="Rectangle-2" stroke="#979797" stroke-width="0.2" x="430.1" y="0.1" width="9.8" height="533.8"></rect>
        <rect id="Rectangle-2" stroke="#979797" stroke-width="0.2" x="440.1" y="0.1" width="9.8" height="533.8"></rect>
        <rect id="Rectangle-2" stroke="#979797" stroke-width="0.2" x="450.1" y="0.1" width="9.8" height="533.8"></rect>
        <rect id="Rectangle-2" stroke="#979797" stroke-width="0.2" x="460.1" y="0.1" width="9.8" height="533.8"></rect>
        <rect id="Rectangle-2" stroke="#979797" stroke-width="0.2" x="470.1" y="0.1" width="9.8" height="533.8"></rect>
        <rect id="Rectangle-2" stroke="#979797" stroke-width="0.2" x="480.1" y="0.1" width="9.8" height="533.8"></rect>
        <rect id="Rectangle-2" stroke="#979797" stroke-width="0.2" x="490.1" y="0.1" width="9.8" height="533.8"></rect>
        <rect id="Rectangle-2" stroke="#979797" stroke-width="0.2" x="500.1" y="0.1" width="9.8" height="533.8"></rect>
        <rect id="Rectangle-2" stroke="#979797" stroke-width="0.2" x="510.1" y="0.1" width="9.8" height="533.8"></rect>
    </g>
</svg>